<svg xmlns="http://www.w3.org/2000/svg" x="0mm" y="0mm" width="250mm" height="140mm" viewBox="0 0 250 140" preserveAspectRatio="xMinYMin meet"><path stroke="#000" stroke-width="0.5" fill="none" d="M 135.05 0 L 250 0 L 250 140 L 0 140 L 0 55.05 L 133 55.05 A 2.05 2.05 0 0 0 135.05 53 L 135.05 0 Z M 190.3010311 8.9560998 A 40.05 40.05 0 1 0 191 8.95 L 190.3014674 8.9560941 Z M 142 109.95 L 148 109.95 A 2.05 2.05 0 0 1 150.05 112 L 150.05 128 A 2.05 2.05 0 0 1 148 130.05 L 142 130.05 A 2.05 2.05 0 0 1 139.95 128 L 139.95 112 A 2.05 2.05 0 0 1 142 109.95 Z M 162 109.95 L 168 109.95 A 2.05 2.05 0 0 1 170.05 112 L 170.05 128 A 2.05 2.05 0 0 1 168 130.05 L 162 130.05 A 2.05 2.05 0 0 1 159.95 128 L 159.95 112 A 2.05 2.05 0 0 1 162 109.95 Z M 182 109.95 L 188 109.95 A 2.05 2.05 0 0 1 190.05 112 L 190.05 128 A 2.05 2.05 0 0 1 188 130.05 L 182 130.05 A 2.05 2.05 0 0 1 179.95 128 L 179.95 112 A 2.05 2.05 0 0 1 182 109.95 Z M 202 109.95 L 208 109.95 A 2.05 2.05 0 0 1 210.05 112 L 210.05 128 A 2.05 2.05 0 0 1 208 130.05 L 202 130.05 A 2.05 2.05 0 0 1 199.95 128 L 199.95 112 A 2.05 2.05 0 0 1 202 109.95 Z M 222 109.95 L 228 109.95 A 2.05 2.05 0 0 1 230.05 112 L 230.05 128 A 2.05 2.05 0 0 1 228 130.05 L 222 130.05 A 2.05 2.05 0 0 1 219.95 128 L 219.95 112 A 2.05 2.05 0 0 1 222 109.95 Z M 122 109.95 L 128 109.95 A 2.05 2.05 0 0 1 130.05 112 L 130.05 128 A 2.05 2.05 0 0 1 128 130.05 L 122 130.05 A 2.05 2.05 0 0 1 119.95 128 L 119.95 112 A 2.05 2.05 0 0 1 122 109.95 Z M 231.9554963 5.4503884 A 2.55 2.55 0 1 0 232 5.45 L 231.9559327 5.4503827 Z M 149.9554963 5.4503884 A 2.55 2.55 0 1 0 150 5.45 L 149.9559327 5.4503827 Z M 149.9554963 87.4503884 A 2.55 2.55 0 1 0 150 87.45 L 149.9559327 87.4503827 Z M 231.9554963 87.4503884 A 2.55 2.55 0 1 0 232 87.45 L 231.9559327 87.4503827 Z"/></svg>